# xmcd
#
# Track frame offsets:
#	150
#	13881
#	32681
#	45975
#	63057
#	78455
#	93537
#	107226
#	124228
#	146047
#	162159
#	183360
#	198601
#	214688
#	236865
#	250699
#	271689
#	288095
#	305731
#
# Disc length: 4347 seconds
# Revision: 5
# Processed by: cddbd v1.5.2PL0 Copyright (c) Steve Scherf et al.
# Submitted via: dBpowerAMP V12.0
#
DISCID=0d10f913
DTITLE=Tim McGraw - 35 Biggest Hits, Disc 1
DYEAR=2015
DGENRE=Country
TTITLE0=Indian Outlaw
TTITLE1=Don't Take the Girl
TTITLE2=Down On The Farm
TTITLE3=Not A Moment Too Soon
TTITLE4=I Like It, I Love It
TTITLE5=Can't Be Really Gone
TTITLE6=She Never Lets It Go To Her Heart
TTITLE7=It's Your Love (with Faith Hill)
TTITLE8=Everywhere
TTITLE9=Just To See You Smile
TTITLE10=One of These Days
TTITLE11=Where the Green Grass Grows
TTITLE12=For a Little While
TTITLE13=Please Remember Me
TTITLE14=Something Like That
TTITLE15=My Best Friend
TTITLE16=My Next Thirty Years
TTITLE17=Grown Men Don't Cry
TTITLE18=Angry All the Time
EXTD=
EXTT0=
EXTT1=
EXTT2=
EXTT3=
EXTT4=
EXTT5=
EXTT6=
EXTT7=
EXTT8=
EXTT9=
EXTT10=
EXTT11=
EXTT12=
EXTT13=
EXTT14=
EXTT15=
EXTT16=
EXTT17=
EXTT18=
PLAYORDER=
